<?xml version="1.0" encoding="UTF-8" standalone="no"?>
<svg
   version="1.1"
   viewBox="0.00 0.00 1494.00 2105.00"
   id="svg35"
   sodipodi:docname="camber_p2_simplified.svg"
   inkscape:version="1.3.2 (091e20e, 2023-11-25)"
   xmlns:inkscape="http://www.inkscape.org/namespaces/inkscape"
   xmlns:sodipodi="http://sodipodi.sourceforge.net/DTD/sodipodi-0.dtd"
   xmlns="http://www.w3.org/2000/svg"
   xmlns:svg="http://www.w3.org/2000/svg">
  <defs
     id="defs35" />
  <sodipodi:namedview
     id="namedview35"
     pagecolor="#ffffff"
     bordercolor="#000000"
     borderopacity="0.25"
     inkscape:showpageshadow="2"
     inkscape:pageopacity="0.0"
     inkscape:pagecheckerboard="0"
     inkscape:deskcolor="#d1d1d1"
     inkscape:zoom="0.37059673"
     inkscape:cx="939.02609"
     inkscape:cy="1297.9068"
     inkscape:window-width="1472"
     inkscape:window-height="799"
     inkscape:window-x="0"
     inkscape:window-y="37"
     inkscape:window-maximized="0"
     inkscape:current-layer="svg35" />
  <path
     stroke="#000000"
     fill="none"
     stroke-width="1.00"
     vector-effect="non-scaling-stroke"
     d="   M 0.00 0.00   L 1494.00 0.00   L 1494.00 2105.00   L 0.00 2105.00   L 0.00 0.00"
     id="path1" />
  <path
     stroke="#000000"
     fill="none"
     stroke-width="1.00"
     vector-effect="non-scaling-stroke"
     d="   M 308.1583 1420.3014   C 308.16 1420.10 307.99 1419.93 307.7903 1419.9295   L 128.9327 1418.9930   C 128.73 1418.99 128.56 1419.16 128.5608 1419.3610   L 127.6217 1598.7186   C 127.62 1598.92 127.79 1599.09 127.9897 1599.0905   L 306.8473 1600.0270   C 307.05 1600.03 307.22 1599.86 307.2192 1599.6590   L 308.1583 1420.3014"
     id="path5" />
  <path
     stroke="#000000"
     fill="none"
     stroke-width="1.00"
     vector-effect="non-scaling-stroke"
     d="   M 907.82 970.99   Q 909.82 971.62 911.57 972.50   Q 922.42 978.00 932.70 983.09   C 937.45 985.45 941.75 988.39 946.28 991.24   Q 950.31 993.79 953.85 996.90   C 958.84 1001.29 964.05 1005.33 967.73 1010.87   C 972.29 1017.74 977.06 1024.34 980.90 1031.66   Q 986.16 1041.69 991.03 1050.83   Q 993.40 1055.27 995.49 1059.84   C 997.83 1064.96 1000.55 1070.24 1002.35 1075.60   C 1004.12 1080.88 1005.85 1086.18 1006.98 1091.58   Q 1008.92 1100.84 1010.83 1109.65   C 1012.75 1118.52 1012.75 1128.01 1013.30 1137.17   C 1014.37 1155.07 1014.54 1173.13 1014.98 1191.01   C 1015.33 1204.91 1014.96 1218.01 1014.83 1231.48   Q 1014.82 1232.04 1015.39 1232.04   C 1028.01 1232.01 1041.03 1231.51 1053.59 1231.74   Q 1117.77 1232.91 1180.01 1233.98   Q 1197.47 1234.29 1214.99 1234.24   Q 1296.31 1234.06 1378.78 1233.80   Q 1379.60 1233.80 1379.60 1232.99   L 1382.69 201.46   C 1382.69 201.07 1382.37 200.75 1381.98 200.75   Q 1328.98 200.46 1276.00 200.11   Q 1265.50 200.04 1255.72 200.17   Q 1185.30 201.12 1114.90 202.12   Q 1104.66 202.26 1094.86 202.23   Q 994.36 201.83 897.76 201.68   Q 885.46 201.66 872.22 202.10   Q 871.35 202.12 871.35 203.00   C 871.40 214.97 871.25 227.15 871.66 239.12   Q 872.99 278.24 874.25 310.55   Q 874.61 319.77 875.25 328.25   Q 878.00 364.99 882.17 411.20   Q 887.36 468.76 902.34 614.15   Q 903.43 624.80 904.04 633.89   Q 906.68 673.17 909.49 714.23   C 910.05 722.32 910.04 730.65 909.86 738.72   Q 909.44 757.24 908.94 776.73   C 908.30 801.13 905.39 825.35 902.82 849.65   C 901.88 858.57 900.41 867.55 898.73 876.45   Q 890.59 919.41 882.61 962.14   C 882.54 962.55 882.77 962.95 883.16 963.08   Q 894.69 966.91 907.82 970.99"
     id="path3" />
  <path
     stroke="#000000"
     fill="none"
     stroke-width="1.00"
     vector-effect="non-scaling-stroke"
     d="   M 732.89 1399.36   C 732.44 1399.36 732.06 1399.73 732.06 1400.18   L 730.95 1470.61   C 730.95 1471.07 731.32 1471.45 731.78 1471.45   L 1300.82 1474.20   C 1301.28 1474.20 1301.65 1473.83 1301.66 1473.37   L 1302.24 1402.66   C 1302.25 1402.20 1301.88 1401.83 1301.42 1401.83   L 732.89 1399.36"
     id="path4" />
  <path
     stroke="#000000"
     fill="none"
     stroke-width="1.00"
     vector-effect="non-scaling-stroke"
     d="   M 1045.27 1607.70   C 1041.14 1610.14 1036.84 1611.50 1032.44 1613.10   Q 1027.52 1614.89 1022.39 1616.07   C 1014.80 1617.82 1007.19 1619.80 999.34 1621.22   Q 983.61 1624.07 970.26 1626.21   Q 965.71 1626.94 960.97 1627.33   Q 942.72 1628.84 921.21 1630.47   C 920.87 1630.50 920.61 1630.78 920.61 1631.12   L 920.29 1765.53   Q 920.29 1766.37 921.13 1766.38   C 939.54 1766.55 959.00 1766.81 977.90 1766.51   Q 1115.19 1764.34 1255.47 1760.88   Q 1268.36 1760.56 1283.90 1759.97   C 1284.54 1759.95 1285.04 1759.43 1285.04 1758.79   C 1285.11 1746.91 1285.21 1735.07 1286.10 1723.40   C 1287.72 1702.34 1289.28 1682.16 1291.46 1660.63   Q 1292.34 1651.95 1293.92 1643.45   C 1296.18 1631.27 1298.20 1618.59 1300.65 1606.76   Q 1304.87 1586.35 1309.40 1565.00   Q 1309.58 1564.14 1308.72 1563.96   Q 1212.38 1543.66 1115.79 1522.27   C 1108.94 1520.75 1101.69 1519.43 1094.64 1517.92   C 1094.16 1517.81 1093.69 1518.15 1093.64 1518.64   Q 1092.20 1532.17 1090.46 1545.98   Q 1089.49 1553.66 1087.47 1562.29   Q 1086.40 1566.88 1084.86 1570.39   Q 1083.11 1574.35 1081.38 1578.40   C 1080.28 1580.97 1077.72 1584.02 1075.68 1586.01   C 1069.35 1592.19 1063.17 1597.71 1055.37 1601.96   Q 1050.21 1604.77 1045.27 1607.70"
     id="path6" />
  <path
     stroke="#000000"
     fill="none"
     stroke-width="1.00"
     vector-effect="non-scaling-stroke"
     d="   M 400.60 556.03   Q 400.77 556.03 400.93 556.11   Q 459.73 582.86 517.86 609.29   Q 518.46 609.57 518.67 608.94   Q 518.93 608.18 519.68 608.15   C 520.01 608.13 520.29 608.41 520.28 608.74   Q 520.27 609.27 520.05 609.74   Q 519.82 610.22 520.30 610.43   L 664.64 675.81   Q 665.53 676.22 665.18 675.30   Q 658.64 658.10 651.35 639.41   C 649.65 635.05 648.31 630.53 647.09 626.19   Q 643.22 612.36 639.51 598.08   Q 638.18 592.98 637.11 587.35   Q 633.49 568.32 629.53 547.87   C 627.17 535.65 626.23 523.81 624.73 511.89   Q 623.60 502.82 623.66 492.93   Q 623.84 465.64 624.88 438.85   C 624.89 438.57 624.69 438.33 624.41 438.29   Q 614.33 436.87 603.91 435.48   C 599.24 434.85 594.76 433.23 590.19 432.05   C 581.95 429.93 574.05 426.16 566.03 423.27   Q 562.33 421.93 559.34 419.67   Q 555.63 416.88 551.79 414.24   C 548.43 411.92 545.73 408.64 542.65 405.87   C 537.30 401.07 533.27 393.96 530.79 387.29   Q 527.71 378.99 525.36 370.67   C 522.60 360.87 520.84 349.90 518.62 339.52   Q 517.21 332.93 516.51 326.00   Q 515.42 315.28 514.25 304.49   C 513.81 300.43 513.85 295.98 514.16 291.89   C 515.04 280.44 516.27 269.04 516.68 257.66   C 517.08 246.34 518.09 235.14 519.00 223.69   Q 519.77 214.01 521.60 203.89   Q 524.26 189.16 527.20 177.26   Q 530.64 163.36 534.60 149.52   C 534.66 149.29 534.54 149.06 534.32 148.98   C 524.29 145.48 514.27 142.07 504.52 138.29   Q 475.28 126.95 446.29 116.15   Q 437.42 112.84 427.33 109.46   Q 390.32 97.07 355.32 85.23   C 346.79 82.34 338.62 78.94 330.43 75.59   Q 330.02 75.42 329.89 75.85   Q 325.82 89.92 321.84 103.21   C 320.63 107.27 319.02 111.19 317.58 115.18   Q 315.99 119.57 313.70 123.89   Q 308.72 133.30 303.77 142.69   C 301.80 146.45 299.22 150.21 296.50 153.45   Q 290.32 160.80 284.11 168.15   C 278.66 174.60 271.57 179.61 265.03 184.86   Q 260.65 188.38 255.86 190.90   C 251.46 193.21 246.86 196.18 242.14 198.12   C 236.67 200.37 231.11 202.13 225.18 204.08   Q 218.21 206.38 212.50 207.40   Q 204.62 208.82 195.96 210.51   Q 187.85 212.10 179.59 212.56   Q 169.13 213.14 158.71 213.96   C 158.35 213.99 158.08 214.28 158.08 214.64   C 157.89 322.74 157.65 429.83 157.08 535.75   C 156.83 581.43 157.05 627.25 156.63 673.50   C 156.27 712.79 156.54 753.13 156.29 797.25   C 156.04 842.20 156.30 889.63 155.91 938.00   C 155.58 978.29 155.80 1017.87 155.51 1057.25   Q 154.96 1131.43 155.09 1207.75   Q 155.11 1216.74 154.96 1227.74   Q 154.59 1254.80 154.66 1281.73   Q 154.66 1282.15 155.07 1282.15   Q 217.33 1282.22 278.32 1283.17   Q 288.83 1283.33 298.35 1283.17   C 322.51 1282.75 347.66 1282.74 372.50 1281.67   C 403.09 1280.36 433.83 1279.29 464.49 1277.47   C 493.23 1275.75 520.57 1273.83 548.00 1272.54   C 593.32 1270.41 640.95 1268.14 688.77 1265.23   Q 689.28 1265.20 689.23 1264.69   Q 685.16 1217.41 681.91 1168.02   Q 681.24 1157.81 679.99 1148.23   Q 674.68 1107.36 669.28 1065.05   Q 668.06 1055.53 666.38 1045.75   Q 651.12 956.98 636.01 870.24   C 629.35 832.02 623.82 794.04 618.05 756.09   C 617.97 755.60 617.74 755.16 617.38 754.83   L 508.25 655.96   Q 507.73 655.50 507.04 655.52   Q 506.15 655.55 506.13 654.68   Q 506.10 653.94 505.56 653.44   L 400.24 556.97   C 399.88 556.64 400.11 556.03 400.60 556.03"
     id="path10" />
  <path
     stroke="#000000"
     fill="none"
     stroke-width="1.00"
     vector-effect="non-scaling-stroke"
     d="   M 530.95 616.68   Q 530.95 616.52 530.85 616.40   Q 530.62 616.13 530.28 615.98   Q 467.22 587.31 404.82 558.92   Q 402.74 557.98 404.42 559.52   L 410.22 564.83   Q 410.71 565.28 411.29 564.95   Q 411.69 564.72 412.13 564.79   Q 412.91 564.90 412.70 565.66   Q 412.64 565.87 412.50 566.04   C 412.29 566.30 412.32 566.68 412.57 566.91   Q 515.17 661.38 618.12 754.18   Q 618.61 754.62 619.26 754.54   L 691.43 745.95   Q 692.01 745.88 691.80 745.33   L 666.25 678.00   C 666.12 677.66 665.87 677.39 665.54 677.24   Q 599.63 647.42 533.85 617.62   C 533.05 617.26 532.34 617.22 531.48 617.20   Q 530.98 617.18 530.95 616.68"
     id="path11" />
  <path
     stroke="#000000"
     fill="none"
     stroke-width="1.00"
     vector-effect="non-scaling-stroke"
     d="   M 338.65 970.28   C 338.47 970.28 338.32 970.13 338.32 969.95   L 340.65 269.79   C 340.65 269.61 340.80 269.46 340.98 269.46   L 356.65 269.47   C 356.91 269.47 357.07 269.18 356.93 268.96   L 341.61 244.83   C 341.48 244.62 341.18 244.62 341.05 244.83   L 325.70 268.93   C 325.56 269.15 325.72 269.44 325.98 269.44   L 339.37 269.46   C 339.55 269.46 339.70 269.61 339.70 269.79   L 337.36 969.95   C 337.36 970.13 337.21 970.28 337.03 970.28   L 322.69 970.20   C 322.43 970.20 322.27 970.49 322.41 970.71   L 336.82 993.56   C 336.95 993.77 337.25 993.77 337.38 993.56   L 351.98 970.86   C 352.12 970.64 351.96 970.35 351.70 970.35   L 338.65 970.28"
     id="path12" />
  <path
     stroke="#000000"
     fill="none"
     stroke-width="1.00"
     vector-effect="non-scaling-stroke"
     d="   M 1165.69 331.46   C 1165.69 331.27 1165.84 331.12 1166.03 331.12   L 1180.31 331.16   C 1180.58 331.16 1180.74 330.86 1180.60 330.64   L 1166.23 307.80   C 1166.09 307.59 1165.79 307.59 1165.65 307.80   L 1151.08 330.55   C 1150.94 330.77 1151.10 331.07 1151.37 331.07   L 1164.40 331.12   C 1164.59 331.12 1164.74 331.27 1164.74 331.46   L 1162.41 1031.54   C 1162.41 1031.73 1162.26 1031.88 1162.07 1031.88   L 1146.39 1031.88   C 1146.12 1031.88 1145.96 1032.18 1146.10 1032.40   L 1161.42 1056.53   C 1161.56 1056.74 1161.86 1056.74 1162.00 1056.53   L 1177.38 1032.43   C 1177.52 1032.21 1177.36 1031.91 1177.09 1031.91   L 1163.70 1031.89   C 1163.51 1031.89 1163.36 1031.74 1163.36 1031.55   L 1165.69 331.46"
     id="path15" />
  <path
     stroke="#000000"
     fill="none"
     stroke-width="1.00"
     vector-effect="non-scaling-stroke"
     d="   M 1051.03 1419.47   C 1051.18 1419.32 1051.42 1419.32 1051.57 1419.47   L 1054.45 1422.33   C 1054.66 1422.54 1055.01 1422.44 1055.08 1422.16   L 1057.74 1412.59   C 1057.82 1412.31 1057.56 1412.05 1057.27 1412.13   L 1047.70 1414.74   C 1047.42 1414.82 1047.32 1415.17 1047.52 1415.37   L 1050.36 1418.26   C 1050.51 1418.41 1050.51 1418.65 1050.36 1418.80   L 1008.09 1460.79   C 1007.94 1460.94 1007.70 1460.94 1007.55 1460.79   L 1004.68 1457.94   C 1004.47 1457.73 1004.12 1457.82 1004.05 1458.10   L 1001.38 1467.67   C 1001.30 1467.95 1001.56 1468.21 1001.85 1468.13   L 1011.42 1465.53   C 1011.70 1465.45 1011.80 1465.10 1011.60 1464.90   L 1008.75 1462.00   C 1008.61 1461.85 1008.61 1461.61 1008.76 1461.46   L 1051.03 1419.47"
     id="path21" />
  <path
     stroke="#000000"
     fill="none"
     stroke-width="1.00"
     vector-effect="non-scaling-stroke"
     d="   M 1134.62 1600.66   C 1134.80 1600.66 1134.95 1600.81 1134.95 1600.99   L 1134.54 1722.76   C 1134.54 1722.94 1134.39 1723.09 1134.21 1723.09   L 1130.03 1723.06   C 1129.78 1723.06 1129.61 1723.33 1129.74 1723.56   L 1134.68 1732.33   C 1134.81 1732.56 1135.13 1732.56 1135.26 1732.34   L 1140.27 1723.59   C 1140.39 1723.37 1140.23 1723.10 1139.98 1723.10   L 1135.79 1723.10   C 1135.61 1723.10 1135.46 1722.95 1135.46 1722.77   L 1135.87 1600.99   C 1135.87 1600.81 1136.02 1600.66 1136.20 1600.66   L 1140.38 1600.69   C 1140.63 1600.69 1140.80 1600.42 1140.67 1600.19   L 1135.73 1591.43   C 1135.60 1591.20 1135.28 1591.20 1135.15 1591.42   L 1130.14 1600.17   C 1130.02 1600.39 1130.18 1600.66 1130.43 1600.66   L 1134.62 1600.66"
     id="path26" />
  <path
     stroke="#000000"
     fill="none"
     stroke-width="1.00"
     vector-effect="non-scaling-stroke"
     d="   M 887.06 1948.43   Q 887.15 1948.33 887.20 1948.20   C 887.31 1947.92 887.12 1947.61 886.82 1947.57   Q 874.92 1946.26 863.32 1944.75   Q 852.50 1943.35 835.94 1940.00   C 825.54 1937.90 817.00 1935.09 807.70 1931.67   Q 799.57 1928.67 791.18 1922.76   Q 779.55 1914.56 773.05 1908.04   C 763.89 1898.85 755.00 1889.44 746.96 1878.57   C 738.32 1866.89 729.56 1855.69 721.30 1843.73   Q 698.09 1810.11 673.43 1777.11   C 664.48 1765.12 654.77 1753.70 644.15 1743.76   Q 632.59 1732.95 620.70 1722.38   Q 610.13 1712.98 600.39 1707.33   Q 573.84 1691.94 546.07 1685.56   Q 533.53 1682.68 522.18 1684.23   Q 513.39 1685.43 504.28 1687.75   C 486.22 1692.35 467.97 1697.87 452.54 1707.05   C 442.11 1713.26 430.84 1719.80 421.47 1726.95   C 401.68 1742.07 384.80 1761.92 367.75 1781.02   C 364.35 1784.83 361.22 1788.98 358.08 1793.03   Q 354.72 1797.38 351.54 1802.00   Q 337.14 1822.97 322.85 1843.57   C 312.83 1858.02 301.65 1871.76 290.77 1885.55   Q 288.14 1888.89 285.12 1892.15   Q 275.59 1902.43 265.34 1912.98   Q 248.25 1930.56 223.17 1938.89   Q 207.19 1944.20 190.51 1948.63   Q 189.90 1948.79 190.06 1949.41   L 211.17 2026.96   C 211.40 2027.81 211.41 2028.71 211.20 2029.58   L 203.73 2060.71   C 203.66 2061.01 203.89 2061.31 204.20 2061.30   C 220.29 2061.08 236.26 2060.46 252.25 2060.39   Q 345.35 2059.99 476.00 2060.34   Q 670.73 2060.86 877.53 2060.70   C 877.75 2060.70 877.91 2060.49 877.85 2060.27   L 869.39 2031.02   C 869.27 2030.60 869.26 2030.16 869.35 2029.73   L 886.89 1948.76   Q 886.93 1948.57 887.06 1948.43"
     id="path29" />
  <path
     stroke="#000000"
     fill="none"
     stroke-width="1.00"
     vector-effect="non-scaling-stroke"
     d="   M 524.21 1792.84   C 524.39 1792.84 524.54 1792.99 524.54 1793.17   L 523.83 2018.30   C 523.83 2018.48 523.68 2018.63 523.50 2018.63   L 519.35 2018.58   C 519.10 2018.57 518.94 2018.85 519.06 2019.07   L 523.99 2027.87   C 524.12 2028.09 524.44 2028.10 524.57 2027.87   L 529.57 2019.10   C 529.69 2018.88 529.53 2018.60 529.28 2018.60   L 525.13 2018.63   C 524.95 2018.63 524.80 2018.48 524.80 2018.30   L 525.51 1793.18   C 525.51 1793.00 525.66 1792.85 525.84 1792.85   L 529.99 1792.89   C 530.25 1792.89 530.41 1792.62 530.28 1792.39   L 525.35 1783.58   C 525.22 1783.36 524.90 1783.35 524.77 1783.58   L 519.77 1792.36   C 519.65 1792.59 519.81 1792.86 520.06 1792.86   L 524.21 1792.84"
     id="path31" />
</svg>
