<?xml version="1.0" encoding="UTF-8" standalone="no"?>
<svg
   version="1.1"
   viewBox="0.00 0.00 1494.00 2105.00"
   id="svg16"
   sodipodi:docname="camber_p1_simplified.svg"
   inkscape:version="1.3.2 (091e20e, 2023-11-25)"
   xmlns:inkscape="http://www.inkscape.org/namespaces/inkscape"
   xmlns:sodipodi="http://sodipodi.sourceforge.net/DTD/sodipodi-0.dtd"
   xmlns="http://www.w3.org/2000/svg"
   xmlns:svg="http://www.w3.org/2000/svg">
  <defs
     id="defs16" />
  <sodipodi:namedview
     id="namedview16"
     pagecolor="#ffffff"
     bordercolor="#000000"
     borderopacity="0.25"
     inkscape:showpageshadow="2"
     inkscape:pageopacity="0.0"
     inkscape:pagecheckerboard="0"
     inkscape:deskcolor="#d1d1d1"
     inkscape:zoom="0.31632054"
     inkscape:cx="768.2081"
     inkscape:cy="978.43789"
     inkscape:window-width="1472"
     inkscape:window-height="920"
     inkscape:window-x="0"
     inkscape:window-y="36"
     inkscape:window-maximized="0"
     inkscape:current-layer="svg16" />
  <path
     stroke="#000000"
     fill="none"
     stroke-width="1.00"
     vector-effect="non-scaling-stroke"
     d="   M 0.00 0.00   L 1494.00 0.00   L 1494.00 2105.00   L 0.00 2105.00   L 0.00 0.00"
     id="path1" />
  <path
     stroke="#000000"
     fill="none"
     stroke-width="1.00"
     vector-effect="non-scaling-stroke"
     d="   M 864.65 1679.58   L 864.59 1680.07   C 864.57 1680.28 864.40 1680.43 864.19 1680.44   L 776.82 1680.76   Q 776.63 1680.76 776.54 1680.94   L 776.39 1681.25   Q 776.18 1681.68 776.66 1681.68   L 864.13 1681.32   C 864.45 1681.32 864.72 1681.59 864.71 1681.91   Q 863.90 1738.85 862.81 1790.50   Q 862.61 1800.03 862.21 1810.50   Q 859.85 1871.65 857.60 1933.20   C 857.15 1945.47 856.22 1957.38 855.48 1969.35   C 855.46 1969.76 855.77 1970.10 856.18 1970.11   Q 901.59 1971.77 950.07 1973.50   C 989.05 1974.89 1028.00 1977.86 1066.99 1979.32   Q 1112.87 1981.03 1158.76 1982.51   C 1187.18 1983.42 1215.72 1983.58 1243.24 1984.13   Q 1253.35 1984.33 1263.24 1984.25   Q 1341.15 1983.62 1416.70 1983.06   Q 1417.54 1983.05 1417.54 1982.21   L 1410.66 204.59   C 1410.66 204.26 1410.41 203.99 1410.08 203.97   Q 1389.36 202.39 1371.67 201.04   Q 1367.47 200.72 1363.59 199.86   Q 1351.56 197.21 1339.31 194.25   C 1336.01 193.45 1332.67 192.37 1329.62 191.00   Q 1321.92 187.53 1314.43 183.97   C 1310.78 182.24 1307.44 179.68 1303.96 177.45   Q 1300.55 175.27 1297.41 172.39   Q 1292.29 167.67 1286.99 162.99   C 1283.58 159.99 1280.79 156.24 1277.80 152.85   Q 1274.55 149.14 1271.87 144.94   C 1267.31 137.80 1262.22 130.96 1258.67 123.32   Q 1254.35 114.04 1250.08 104.47   Q 1245.88 95.09 1243.39 86.71   Q 1240.41 76.72 1237.52 67.56   C 1237.36 67.06 1236.83 66.78 1236.33 66.95   Q 1226.04 70.38 1218.81 72.93   Q 1134.72 102.63 1051.18 132.14   Q 1040.53 135.90 1030.26 139.54   C 1029.93 139.66 1029.75 140.02 1029.86 140.35   Q 1033.03 150.48 1036.37 160.76   C 1039.86 171.50 1042.40 182.68 1045.17 193.69   C 1046.05 197.20 1046.74 200.86 1047.06 204.42   C 1048.20 216.81 1049.44 229.54 1049.93 242.10   Q 1050.46 255.90 1051.07 269.25   Q 1051.52 279.06 1050.92 288.85   Q 1050.05 303.01 1049.52 317.07   Q 1049.20 325.26 1047.74 333.19   Q 1045.55 345.15 1043.66 356.49   C 1043.08 359.97 1041.85 364.07 1040.46 367.31   Q 1036.37 376.89 1032.31 386.51   Q 1031.83 387.65 1029.73 391.10   C 1027.19 395.29 1023.69 398.98 1020.55 402.82   C 1018.15 405.74 1014.95 407.55 1012.02 409.80   Q 1008.67 412.37 1005.11 414.05   C 1000.90 416.06 996.88 418.38 992.37 419.58   Q 982.09 422.30 972.36 425.18   Q 966.60 426.89 960.48 427.53   Q 950.14 428.62 940.37 429.91   C 940.04 429.95 939.80 430.26 939.83 430.59   C 941.05 443.51 942.85 456.34 942.91 469.08   Q 942.97 481.62 943.14 493.42   C 943.21 498.65 942.62 504.14 942.13 509.27   Q 941.56 515.19 940.54 521.45   Q 937.05 542.83 933.36 564.54   C 931.14 577.62 928.26 590.94 925.37 604.31   Q 924.20 609.67 922.61 614.69   C 919.86 623.38 917.19 631.88 913.71 640.27   C 908.26 653.40 902.75 666.64 897.83 679.86   Q 886.20 711.09 875.00 740.98   C 874.85 741.36 875.11 741.78 875.52 741.83   L 949.53 750.70   Q 950.13 750.77 950.05 751.37   C 948.59 762.39 947.66 773.44 945.49 784.44   Q 940.61 809.23 935.83 834.07   C 931.92 854.35 929.17 874.99 925.75 895.26   Q 918.91 935.82 910.42 984.40   C 905.57 1012.11 901.63 1040.05 897.33 1067.86   C 893.88 1090.22 891.51 1112.87 888.85 1135.29   Q 887.70 1145.08 886.82 1155.24   Q 884.92 1177.20 883.00 1198.31   C 881.75 1212.09 880.93 1225.95 879.94 1239.78   Q 879.19 1250.14 878.67 1259.66   Q 876.24 1304.02 873.77 1347.92   Q 873.20 1357.92 872.95 1367.90   Q 869.85 1490.62 865.96 1617.87   C 865.35 1637.84 865.17 1658.26 864.82 1677.76   C 864.81 1678.08 864.55 1678.34 864.23 1678.34   L 776.73 1678.63   Q 776.44 1678.63 776.44 1678.92   L 776.45 1679.31   Q 776.45 1679.67 776.80 1679.66   Q 820.92 1679.05 864.44 1679.34   Q 864.68 1679.35 864.65 1679.58"
     id="path2" />
  <path
     stroke="#000000"
     fill="none"
     stroke-width="1.00"
     vector-effect="non-scaling-stroke"
     d="   M 828.2563 187.9569   C 828.26 187.72 828.07 187.54 827.8349 187.5384   L 648.9960 188.1627   C 648.76 188.16 648.58 188.35 648.5774 188.5841   L 649.2037 367.9831   C 649.20 368.22 649.39 368.40 649.6251 368.4016   L 828.4640 367.7773   C 828.70 367.78 828.88 367.59 828.8826 367.3559   L 828.2563 187.9569"
     id="path3" />
  <path
     stroke="#000000"
     fill="none"
     stroke-width="1.00"
     vector-effect="non-scaling-stroke"
     d="   M 609.25 1677.30   C 609.30 1676.96 609.59 1676.71 609.94 1676.71   L 697.98 1676.41   Q 698.20 1676.41 698.20 1676.19   L 698.20 1675.94   C 698.20 1675.70 698.01 1675.51 697.77 1675.51   L 609.77 1675.79   Q 609.28 1675.80 609.27 1675.31   C 608.56 1636.67 607.91 1597.95 606.59 1559.26   Q 604.32 1492.99 602.20 1426.00   Q 601.88 1415.69 601.39 1405.67   Q 596.18 1298.45 591.31 1194.13   Q 590.84 1184.11 590.15 1174.52   Q 587.56 1138.63 584.69 1102.76   Q 583.80 1091.56 582.82 1083.00   Q 576.82 1030.45 570.71 977.92   Q 569.53 967.82 568.49 958.06   Q 563.23 908.74 558.58 864.49   C 555.12 831.63 553.10 797.82 550.64 764.83   C 550.05 756.82 550.05 748.59 549.90 740.52   C 549.63 724.83 550.75 708.38 551.50 692.96   Q 552.02 682.42 553.17 673.00   C 555.26 655.83 557.33 637.71 560.06 620.12   Q 567.79 570.37 576.31 520.82   C 576.36 520.51 576.17 520.20 575.87 520.11   Q 566.70 517.19 556.46 514.22   Q 550.43 512.48 544.56 509.63   Q 536.03 505.49 527.44 501.58   C 523.57 499.81 520.36 497.43 516.87 495.14   Q 513.04 492.64 509.33 489.15   C 503.54 483.70 497.50 478.86 493.12 472.43   C 489.03 466.40 484.54 460.56 481.11 454.30   Q 476.00 444.97 469.76 433.90   C 466.69 428.44 464.93 422.67 462.78 416.84   Q 460.71 411.22 459.22 404.70   Q 455.94 390.23 452.58 376.09   Q 450.63 367.86 449.49 357.90   C 448.22 346.80 446.28 335.71 445.74 324.66   Q 444.83 306.17 444.08 290.13   Q 443.64 280.72 443.93 271.44   Q 444.21 262.34 444.40 252.76   Q 444.41 252.10 443.75 252.08   Q 431.44 251.80 418.75 251.85   Q 364.85 252.08 313.00 252.33   Q 197.23 252.88 80.97 253.34   C 80.45 253.35 80.03 253.76 80.03 254.28   L 86.10 1982.96   Q 86.10 1983.71 86.85 1983.70   Q 136.47 1982.92 185.99 1982.11   Q 196.70 1981.94 206.00 1981.99   Q 277.04 1982.41 348.75 1982.85   C 437.05 1983.41 525.35 1982.30 613.64 1981.58   C 614.00 1981.58 614.30 1981.28 614.30 1980.92   C 614.46 1968.43 614.77 1955.70 614.52 1943.38   Q 611.86 1808.58 609.36 1679.75   C 609.35 1679.52 609.54 1679.33 609.77 1679.33   L 698.02 1679.01   C 698.12 1679.01 698.21 1678.92 698.21 1678.82   L 698.21 1678.54   Q 698.21 1678.08 697.75 1678.09   L 609.81 1678.41   C 609.43 1678.41 609.13 1678.07 609.19 1677.69   L 609.25 1677.30"
     id="path4" />
  <path
     stroke="#000000"
     fill="none"
     stroke-width="1.00"
     vector-effect="non-scaling-stroke"
     d="   M 1064.23 1678.08   Q 1064.23 1678.27 1064.32 1678.43   Q 1064.71 1679.15 1063.97 1678.81   Q 1063.28 1678.50 1062.54 1678.50   Q 964.40 1679.06 866.24 1679.20   Q 865.93 1679.20 865.89 1679.51   L 865.84 1679.94   Q 865.79 1680.40 866.26 1680.40   Q 959.56 1680.36 1052.75 1679.86   Q 1059.32 1679.82 1065.95 1679.93   Q 1066.11 1679.93 1066.11 1680.09   L 1066.11 1680.39   Q 1066.11 1680.65 1065.85 1680.65   L 865.98 1681.38   C 865.83 1681.38 865.72 1681.50 865.71 1681.65   Q 864.89 1726.19 864.21 1770.69   Q 864.05 1781.23 863.73 1790.69   Q 861.26 1863.74 858.40 1936.95   C 857.99 1947.42 857.13 1958.15 856.45 1968.75   C 856.43 1968.99 856.62 1969.20 856.86 1969.21   Q 900.13 1970.79 948.80 1972.50   Q 958.27 1972.83 968.84 1973.41   Q 1010.96 1975.69 1053.27 1977.80   Q 1063.21 1978.29 1073.26 1978.63   Q 1112.12 1979.95 1148.03 1981.25   Q 1158.27 1981.62 1168.00 1981.80   Q 1205.00 1982.49 1243.26 1983.22   Q 1253.56 1983.41 1263.35 1983.33   Q 1339.12 1982.70 1415.87 1982.16   Q 1416.45 1982.16 1416.48 1981.58   Q 1416.75 1977.33 1416.50 1973.06   Q 1416.22 1968.34 1416.18 1964.40   Q 1415.54 1900.89 1415.67 1837.00   Q 1415.69 1827.83 1415.57 1817.00   Q 1415.01 1765.56 1415.26 1714.04   C 1415.32 1703.16 1414.85 1691.43 1414.87 1679.89   C 1414.87 1679.63 1414.66 1679.42 1414.41 1679.43   L 1146.23 1680.37   Q 1145.94 1680.37 1145.94 1680.08   L 1145.94 1679.69   Q 1145.94 1679.41 1146.21 1679.41   L 1414.15 1678.56   Q 1414.86 1678.56 1414.78 1677.85   L 1414.74 1677.52   Q 1414.72 1677.33 1414.52 1677.33   L 1145.35 1678.23   Q 1145.04 1678.23 1145.03 1677.92   L 1145.03 1677.58   Q 1145.03 1677.35 1145.27 1677.35   L 1414.31 1676.40   C 1414.60 1676.39 1414.83 1676.16 1414.83 1675.88   Q 1414.74 1624.47 1414.80 1585.45   C 1414.82 1575.89 1414.45 1566.04 1414.42 1556.25   Q 1414.25 1503.14 1414.11 1452.50   Q 1414.09 1445.53 1414.07 1438.75   Q 1413.85 1384.09 1413.79 1336.25   Q 1413.78 1327.33 1413.66 1316.25   Q 1413.12 1263.61 1413.37 1212.17   C 1413.42 1201.56 1412.99 1190.33 1412.97 1179.50   C 1412.89 1144.98 1413.07 1109.79 1412.77 1074.50   C 1412.39 1029.26 1412.64 984.54 1412.22 940.00   C 1411.84 899.22 1412.23 858.44 1411.81 817.66   C 1411.38 776.30 1411.71 734.92 1411.31 693.54   C 1410.90 651.53 1411.28 609.73 1410.87 568.01   C 1410.45 526.62 1410.78 484.87 1410.37 443.00   Q 1409.85 389.61 1410.04 336.00   Q 1410.07 327.25 1409.85 316.01   Q 1409.36 291.64 1409.87 266.50   Q 1409.89 265.48 1409.89 264.49   Q 1409.78 234.82 1409.65 205.36   C 1409.65 205.04 1409.40 204.77 1409.08 204.75   Q 1389.69 203.50 1371.21 201.81   Q 1368.88 201.60 1366.43 201.31   Q 1364.26 201.06 1362.21 200.59   Q 1350.58 197.90 1338.49 194.99   C 1330.34 193.03 1322.65 188.92 1315.17 185.41   C 1311.13 183.52 1307.80 181.13 1304.14 178.72   C 1297.72 174.51 1292.41 169.01 1286.73 164.05   C 1283.15 160.92 1280.40 157.22 1277.29 153.69   Q 1273.93 149.88 1271.11 145.52   Q 1265.76 137.27 1261.16 130.07   Q 1259.04 126.76 1257.47 123.21   Q 1253.39 114.02 1249.28 105.04   Q 1245.43 96.62 1242.85 88.11   Q 1239.88 78.30 1236.74 68.35   C 1236.66 68.11 1236.40 67.97 1236.16 68.05   Q 1226.71 71.06 1218.80 73.85   Q 1152.95 97.02 1067.51 127.56   Q 1050.12 133.78 1031.44 140.04   C 1031.08 140.16 1030.88 140.55 1031.00 140.91   Q 1033.94 150.09 1036.81 158.97   C 1040.55 170.56 1043.32 182.30 1046.29 194.20   C 1047.06 197.24 1047.53 200.39 1047.86 203.50   C 1049.26 216.99 1050.55 231.66 1051.03 245.97   C 1051.51 259.96 1052.76 273.66 1051.93 287.66   Q 1051.02 302.97 1050.35 318.55   Q 1050.03 325.78 1048.60 333.68   Q 1046.56 344.96 1044.83 355.54   Q 1043.93 361.02 1042.06 365.65   Q 1037.98 375.79 1033.49 386.20   C 1030.67 392.73 1025.83 397.77 1021.41 403.28   C 1018.92 406.38 1015.49 408.32 1012.35 410.73   Q 1008.69 413.54 1004.63 415.36   C 1000.69 417.11 996.97 419.36 992.80 420.46   Q 983.51 422.91 972.98 425.97   Q 966.55 427.85 960.01 428.54   Q 950.45 429.55 941.17 430.71   C 940.97 430.73 940.83 430.91 940.85 431.11   Q 941.81 441.25 942.91 451.39   Q 943.95 461.02 943.98 470.52   C 944.02 481.72 944.50 492.93 943.60 504.15   Q 942.85 513.55 942.12 517.90   Q 938.26 540.81 934.71 562.38   Q 933.02 572.61 931.03 582.03   Q 928.57 593.61 926.23 604.91   Q 925.15 610.13 923.60 614.87   C 920.85 623.23 918.21 631.79 914.84 639.99   Q 908.23 656.10 902.18 670.87   Q 901.78 671.84 902.74 671.41   L 1166.95 552.20   Q 1167.46 551.97 1167.70 551.47   Q 1168.45 549.91 1169.53 551.25   C 1169.63 551.38 1169.61 551.57 1169.49 551.68   Q 1118.81 597.44 1069.20 642.28   Q 1061.77 648.99 1054.48 655.77   Q 1002.86 703.76 951.26 751.82   Q 950.80 752.25 950.74 752.87   C 949.53 764.10 948.22 775.30 946.05 786.47   Q 941.71 808.90 937.31 831.30   Q 935.48 840.59 933.84 851.11   Q 928.07 888.13 923.81 912.67   Q 917.84 947.02 911.75 982.13   Q 909.99 992.29 908.50 1001.88   Q 903.27 1035.50 898.26 1068.11   Q 896.74 1078.01 895.53 1087.96   C 893.00 1108.70 890.16 1129.42 888.27 1150.21   Q 885.77 1177.59 883.30 1206.04   C 881.72 1224.23 880.67 1243.09 879.64 1260.76   Q 876.87 1308.46 874.59 1350.26   Q 874.05 1360.22 873.80 1370.25   Q 870.58 1500.21 866.73 1624.26   C 866.18 1641.98 866.20 1659.75 865.73 1677.88   Q 865.72 1678.38 866.22 1678.38   L 1063.78 1677.65   Q 1064.22 1677.65 1064.23 1678.08"
     id="path5" />
  <path
     stroke="#000000"
     fill="none"
     stroke-width="1.00"
     vector-effect="non-scaling-stroke"
     d="   M 1244.98 802.85   C 1244.84 803.07 1245.00 803.37 1245.27 803.37   L 1258.65 803.29   C 1258.84 803.29 1258.99 803.44 1258.99 803.63   L 1261.64 1503.73   C 1261.64 1503.92 1261.49 1504.07 1261.30 1504.07   L 1246.99 1504.12   C 1246.72 1504.12 1246.56 1504.42 1246.70 1504.64   L 1261.26 1527.37   C 1261.40 1527.58 1261.70 1527.58 1261.84 1527.37   L 1276.22 1504.60   C 1276.36 1504.38 1276.20 1504.08 1275.93 1504.08   L 1262.88 1504.09   C 1262.69 1504.09 1262.54 1503.94 1262.54 1503.75   L 1259.94 803.64   C 1259.94 803.45 1260.09 803.30 1260.28 803.30   L 1275.93 803.17   C 1276.20 803.17 1276.36 802.88 1276.21 802.65   L 1260.73 778.66   C 1260.59 778.45 1260.29 778.45 1260.16 778.66   L 1244.98 802.85"
     id="path7" />
  <path
     stroke="#000000"
     fill="none"
     stroke-width="1.00"
     vector-effect="non-scaling-stroke"
     d="   M 532.55 505.04   C 523.51 501.16 514.61 495.51 507.28 488.55   C 502.56 484.07 497.30 479.89 493.64 474.69   C 488.54 467.46 483.34 460.46 479.09 452.65   Q 473.75 442.82 468.29 433.17   C 465.58 428.38 464.14 422.95 462.13 417.84   Q 460.02 412.49 458.53 405.91   Q 455.23 391.31 452.20 378.79   Q 449.93 369.47 448.82 360.29   C 447.01 345.38 444.92 330.88 444.32 315.74   C 443.75 301.29 442.46 286.73 442.91 272.17   Q 443.21 262.71 443.54 253.53   Q 443.55 253.14 443.16 253.13   Q 426.50 252.49 403.76 252.70   Q 276.74 253.88 81.65 254.21   Q 81.18 254.21 81.18 254.68   L 86.62 1677.47   C 86.62 1677.66 86.78 1677.82 86.97 1677.82   L 607.72 1675.80   Q 608.30 1675.80 608.29 1675.22   C 607.05 1592.09 604.12 1511.28 601.36 1428.74   Q 601.02 1418.60 600.55 1408.75   Q 595.44 1301.74 590.38 1194.73   Q 589.91 1184.73 589.20 1174.84   Q 586.66 1139.62 584.06 1106.12   Q 582.70 1088.59 580.45 1069.85   Q 567.33 960.62 556.60 853.78   Q 553.65 824.49 549.50 761.35   Q 549.12 755.65 549.08 750.48   C 549.00 741.65 548.80 732.98 549.17 724.21   C 549.86 707.57 550.11 690.45 552.11 673.93   C 554.36 655.36 556.66 635.16 559.73 615.87   C 564.76 584.32 569.51 552.83 575.36 521.52   Q 575.47 520.94 574.91 520.77   Q 565.31 517.74 555.41 514.89   Q 549.71 513.25 544.32 510.54   Q 538.40 507.56 532.55 505.04"
     id="path9" />
  <path
     stroke="#000000"
     fill="none"
     stroke-width="1.00"
     vector-effect="non-scaling-stroke"
     d="   M 441.60 1530.31   C 441.77 1530.04 441.58 1529.69 441.26 1529.69   L 428.36 1529.73   C 428.14 1529.73 427.96 1529.55 427.96 1529.33   L 425.33 829.39   C 425.33 829.17 425.51 828.99 425.73 828.99   L 441.23 828.82   C 441.55 828.81 441.74 828.47 441.57 828.20   L 426.17 804.37   C 426.01 804.12 425.65 804.12 425.50 804.37   L 410.41 828.47   C 410.24 828.74 410.43 829.09 410.75 829.08   L 423.98 828.98   C 424.20 828.98 424.38 829.16 424.38 829.38   L 427.05 1529.34   C 427.05 1529.56 426.87 1529.74 426.65 1529.74   L 412.52 1529.81   C 412.20 1529.81 412.01 1530.16 412.18 1530.42   L 426.60 1552.95   C 426.76 1553.20 427.12 1553.20 427.28 1552.95   L 441.60 1530.31"
     id="path12" />
  <path
     stroke="#000000"
     fill="none"
     stroke-width="1.00"
     vector-effect="non-scaling-stroke"
     d="   M 1274.52 1505.58   C 1274.67 1505.34 1274.50 1505.04 1274.22 1505.04   L 1248.75 1505.13   C 1248.47 1505.13 1248.31 1505.43 1248.46 1505.67   L 1261.26 1525.58   C 1261.40 1525.80 1261.72 1525.80 1261.85 1525.58   L 1274.52 1505.58"
     id="path14" />
</svg>
